<svg class="d-none d-lg-block logo--desktop" width="294" height="58" viewBox="0 0 294 58" fill="none" xmlns="http://www.w3.org/2000/svg">
                     <path d="M0 24.5137V8.23608H2.29366V24.9332C2.29366 25.5982 2.59061 25.8642 3.22547 25.8642C3.54289 25.8642 3.75792 25.8131 3.75792 25.8131L4.07535 27.4603C3.67601 27.624 2.97972 27.757 2.42678 27.757C0.727009 27.757 0 26.8567 0 24.5137Z" fill="#33892D"/>
                     <path d="M6.44067 20.8101C6.44067 15.7559 8.51931 13.812 11.6526 13.812C14.7859 13.812 16.629 15.6229 16.629 20.4315V21.3319H8.88793C8.93913 24.9741 9.73782 25.8745 11.9496 25.8745C13.3831 25.8745 14.2125 25.3117 15.0931 24.6263L16.3423 26.2735C15.0419 27.3375 13.8439 27.8184 11.8984 27.8184C8.40667 27.8184 6.44067 25.7926 6.44067 20.7998V20.8101ZM8.91865 19.613H14.2125C14.2125 16.5539 13.5162 15.6229 11.6014 15.6229C10.0552 15.6229 9.10296 16.4209 8.90841 19.613H8.91865Z" fill="#33892D"/>
                     <path d="M20.4382 14.1599H22.2199L22.5885 16.0526C23.5715 14.8249 24.8003 13.9246 26.3362 13.9246C26.5 13.9246 26.7048 13.9553 26.8175 14.0064L26.5512 16.4516C26.3157 16.3698 26.0188 16.3493 25.7526 16.3493C24.5238 16.3493 23.7046 16.7995 22.7216 17.7101V27.5012H20.428V14.1599H20.4382Z" fill="#33892D"/>
                     <path d="M29.9712 14.1599H31.7529L32.101 15.8071C33.2683 14.6407 34.5995 13.812 36.1764 13.812C38.0912 13.812 39.3916 14.7942 39.3916 17.0553V27.4807H37.0979V17.7714C37.0979 16.2572 36.6679 15.8275 35.4698 15.8275C34.4049 15.8275 33.2069 16.5744 32.2546 17.4236V27.4807H29.9609V14.1599H29.9712Z" fill="#33892D"/>
                     <path d="M43.0881 20.8101C43.0881 15.7559 45.1668 13.812 48.3001 13.812C51.4334 13.812 53.2765 15.6229 53.2765 20.4315V21.3319H45.5354C45.5866 24.9741 46.3853 25.8745 48.597 25.8745C50.0306 25.8745 50.86 25.3117 51.7406 24.6263L52.9898 26.2735C51.6894 27.3375 50.4913 27.8184 48.5458 27.8184C45.0541 27.8184 43.0881 25.7926 43.0881 20.7998V20.8101ZM45.5661 19.613H50.86C50.86 16.5539 50.1637 15.6229 48.2489 15.6229C46.7027 15.6229 45.7504 16.4209 45.5559 19.613H45.5661Z" fill="#33892D"/>
                     <path d="M57.0959 14.1599H58.8776L59.2258 15.8071C60.3931 14.6407 61.7242 13.812 63.3011 13.812C65.2159 13.812 66.5163 14.7942 66.5163 17.0553V27.4807H64.2227V17.7714C64.2227 16.2572 63.7926 15.8275 62.5946 15.8275C61.5297 15.8275 60.3316 16.5744 59.3794 17.4236V27.4807H57.0857V14.1599H57.0959Z" fill="#33892D"/>
                     <path d="M0 38.3972H3.68625C6.31782 38.3972 7.28034 39.7784 7.28034 41.7326C7.28034 43.0421 6.95267 43.7481 5.75464 44.2596C6.97315 44.6075 7.84351 45.5487 7.84351 47.4006C7.84351 49.8867 6.20518 50.8996 3.8808 50.8996H0V38.3972ZM3.7272 43.6969C5.2017 43.6969 5.52937 43.0831 5.52937 41.7735C5.52937 40.4639 5.10955 39.7989 3.64529 39.7989H1.64857V43.6969H3.7272ZM3.70672 49.5082C5.44745 49.5082 6.07207 48.8329 6.07207 47.3085C6.07207 45.7841 5.50889 45.1088 3.78864 45.1088H1.66905V49.4979H3.70672V49.5082Z" fill="white"/>
                     <path d="M10.9359 43.032L9.59448 42.8171V41.8145H12.5025V50.9099H10.9359V43.032ZM10.6082 39.0214C10.6082 38.3871 11.0792 37.896 11.6936 37.896C12.308 37.896 12.7995 38.3666 12.7995 39.0214C12.7995 39.6353 12.3284 40.1264 11.6731 40.1264C11.0587 40.1264 10.598 39.6353 10.598 39.0214H10.6082Z" fill="white"/>
                     <path d="M15.7996 48.8739V37.7629H17.3662V49.1604C17.3662 49.6105 17.5608 49.7947 18.0011 49.7947C18.2161 49.7947 18.3595 49.7538 18.3595 49.7538L18.5745 50.8792C18.298 50.9917 17.827 51.0838 17.4481 51.0838C16.2808 51.0838 15.7996 50.4699 15.7996 48.8739V48.8739Z" fill="white"/>
                     <path d="M20.3254 46.4184C20.3254 43.0012 21.3289 41.5689 23.4485 41.5689C24.452 41.5689 25.2814 42.1111 25.865 42.6738V37.7527H27.4317V50.8894H26.2132L25.9572 49.9481C25.2712 50.7052 24.3905 51.1247 23.428 51.1247C21.6873 51.1247 20.3254 50.1425 20.3254 46.4082V46.4184ZM25.865 48.8125V43.8913C25.3428 43.3798 24.6158 42.9091 23.8479 42.9091C22.5577 42.9091 21.9945 43.3798 21.9945 46.3059C21.9945 49.232 22.4655 49.7947 23.7045 49.7947C24.5953 49.7947 25.2097 49.4366 25.865 48.8125V48.8125Z" fill="white"/>
                     <path d="M30.5652 48.8227V41.8145H32.1318V48.3317C32.1318 49.4059 32.4902 49.764 33.3094 49.764C34.0364 49.764 34.8146 49.2729 35.4904 48.6795V41.8145H37.0571V50.9099H35.8386L35.6031 49.7845C34.8453 50.562 33.9647 51.1452 32.8998 51.1452C31.5891 51.1452 30.5754 50.3983 30.5754 48.8227H30.5652Z" fill="white"/>
                     <path d="M40.262 41.8144H41.4805L41.716 42.9398C42.5147 42.1418 43.426 41.5791 44.4909 41.5791C45.8016 41.5791 46.6924 42.2544 46.6924 43.789V50.8996H45.136V44.2801C45.136 43.2468 44.8493 42.9501 44.0301 42.9501C43.3031 42.9501 42.484 43.4616 41.8286 44.0346V50.8996H40.262V41.8042V41.8144Z" fill="white"/>
                     <path d="M49.0886 51.9944C49.0886 51.0326 49.6518 50.4699 50.3071 50.0709C49.8566 49.7947 49.6211 49.3445 49.6211 48.8023C49.6211 47.9122 50.0921 47.329 50.6246 46.9197C49.8771 46.4287 49.4572 45.6306 49.4572 44.5257C49.4572 42.6022 50.727 41.5894 52.7134 41.5894C53.2561 41.5894 53.7271 41.6814 54.1265 41.8247H56.799V42.7659L55.5805 43.0933C55.7955 43.5333 55.9287 44.0346 55.9287 44.5768C55.9287 46.5003 54.7101 47.4415 52.7339 47.4415C52.3141 47.4415 51.9147 47.4006 51.5666 47.3188C51.2799 47.6257 51.0444 48.0861 51.0444 48.4237C51.0444 48.7 51.2082 48.8943 51.6792 48.8943H53.2459C55.2836 48.8943 56.5123 49.7435 56.5123 51.5647C56.5123 53.3858 55.345 54.5214 52.7851 54.5214C50.2252 54.5214 49.0989 53.5188 49.0989 51.9944H49.0886ZM50.6553 51.8511C50.6553 52.7924 50.9625 53.2835 52.7646 53.2835C54.2186 53.2835 54.9047 52.7719 54.9047 51.6158C54.9047 50.6541 54.2903 50.3779 53.338 50.3779H51.3618C50.942 50.6848 50.6553 51.1554 50.6553 51.8511V51.8511ZM54.3108 44.5359C54.3108 43.2468 53.7988 42.8273 52.6725 42.8273C51.6178 42.8273 51.0751 43.2979 51.0751 44.5666C51.0751 45.8353 51.6383 46.2547 52.693 46.2547C53.7476 46.2547 54.3108 45.7636 54.3108 44.5257V44.5359Z" fill="white"/>
                     <path d="M63.5876 37.0979H64.714V53.6109H63.5876V37.0979Z" fill="white"/>
                     <path d="M72.4961 38.3972H76.1823C78.8139 38.3972 79.7764 39.7784 79.7764 41.7326C79.7764 43.0421 79.4487 43.7481 78.2507 44.2596C79.4692 44.6075 80.3396 45.5487 80.3396 47.4006C80.3396 49.8867 78.7013 50.8996 76.3769 50.8996H72.4858V38.3972H72.4961ZM76.2233 43.6969C77.6978 43.6969 78.0254 43.0831 78.0254 41.7735C78.0254 40.4639 77.6056 39.7989 76.1311 39.7989H74.1549V43.6969H76.2233ZM76.2028 49.5082C77.9435 49.5082 78.5681 48.8329 78.5681 47.3085C78.5681 45.7841 78.005 45.1088 76.2847 45.1088H74.1754V49.4979H76.213L76.2028 49.5082Z" fill="white"/>
                     <path d="M82.3057 46.3468C82.3057 42.8989 83.7187 41.5688 85.869 41.5688C88.0193 41.5688 89.2686 42.8068 89.2686 46.091V46.7049H83.985C84.0259 49.191 84.5686 49.8049 86.0738 49.8049C87.0568 49.8049 87.62 49.4263 88.2139 48.9557L89.0638 50.0811C88.1729 50.8075 87.3538 51.1349 86.0329 51.1349C83.6573 51.1349 82.3057 49.7537 82.3057 46.3468V46.3468ZM83.9952 45.5283H87.6098C87.6098 43.4411 87.1387 42.8068 85.8281 42.8068C84.7734 42.8068 84.1181 43.3491 83.9952 45.5283Z" fill="white"/>
                     <path d="M91.8591 41.8143H93.0776L93.3336 43.1035C94.0094 42.2645 94.8388 41.6506 95.8935 41.6506C96.0062 41.6506 96.1495 41.6711 96.2212 41.7018L96.0369 43.3695C95.873 43.3183 95.6785 43.2978 95.4942 43.2978C94.6545 43.2978 94.0914 43.6048 93.4258 44.2186V50.8995H91.8591V41.8041V41.8143Z" fill="white"/>
                     <path d="M97.7266 48.3112C97.7266 46.2445 98.9451 45.2828 101.925 45.2828H102.672V44.5768C102.672 43.5639 102.549 42.9398 101.362 42.9398C100.42 42.9398 99.5082 43.3388 98.7095 43.7788L98.1054 42.5817C99.027 42.0395 100.071 41.5791 101.525 41.5791C103.307 41.5791 104.229 42.3771 104.229 44.321V50.9098H103.01L102.754 49.9993C102.222 50.5825 101.464 51.1452 100.461 51.1452C98.7198 51.1452 97.7163 50.1834 97.7163 48.3112H97.7266ZM102.662 48.8227V46.4082H102.119C99.8257 46.4082 99.3956 46.9913 99.3956 48.3112C99.3956 49.5082 99.7745 49.9072 100.665 49.9072C101.556 49.9072 102.222 49.3036 102.662 48.8227Z" fill="white"/>
                     <path d="M106.481 41.8143H107.515V39.4714L109.082 39.1235V41.8143H110.956V43.083H109.082V49.0579C109.082 49.6411 109.318 49.8969 109.83 49.8969C110.249 49.8969 110.536 49.7536 110.833 49.6411L111.14 50.8074C110.72 51.0121 110.27 51.1553 109.707 51.1553C108.468 51.1553 107.526 50.6642 107.526 49.2114V43.0932H106.491V41.8245L106.481 41.8143Z" fill="white"/>
                     <path d="M113.332 48.8227V41.8145H114.898V48.3317C114.898 49.4059 115.257 49.764 116.076 49.764C116.803 49.764 117.581 49.2729 118.257 48.6795V41.8145H119.823V50.9099H118.605L118.369 49.7845C117.612 50.562 116.731 51.1452 115.666 51.1452C114.355 51.1452 113.342 50.3983 113.342 48.8227H113.332Z" fill="white"/>
                     <path d="M123.029 41.8144H124.247L124.483 42.9398C125.281 42.1418 126.193 41.5791 127.258 41.5791C128.568 41.5791 129.459 42.2544 129.459 43.789V50.8996H127.903V44.2801C127.903 43.2468 127.616 42.9501 126.797 42.9501C126.07 42.9501 125.251 43.4616 124.595 44.0346V50.8996H123.029V41.8042V41.8144Z" fill="white"/>
                     <path d="M131.855 51.9944C131.855 51.0326 132.418 50.4699 133.073 50.0709C132.623 49.7947 132.387 49.3445 132.387 48.8023C132.387 47.9122 132.858 47.329 133.391 46.9197C132.643 46.4287 132.224 45.6306 132.224 44.5257C132.224 42.6022 133.493 41.5894 135.48 41.5894C136.022 41.5894 136.494 41.6814 136.893 41.8247H139.565V42.7659L138.347 43.0933C138.562 43.5333 138.695 44.0346 138.695 44.5768C138.695 46.5003 137.477 47.4415 135.5 47.4415C135.08 47.4415 134.681 47.4006 134.333 47.3188C134.046 47.6257 133.811 48.0861 133.811 48.4237C133.811 48.7 133.975 48.8943 134.446 48.8943H136.012C138.05 48.8943 139.279 49.7435 139.279 51.5647C139.279 53.3858 138.111 54.5214 135.551 54.5214C132.992 54.5214 131.865 53.5188 131.865 51.9944H131.855ZM133.422 51.8511C133.422 52.7924 133.729 53.2835 135.531 53.2835C136.985 53.2835 137.671 52.7719 137.671 51.6158C137.671 50.6541 137.057 50.3779 136.104 50.3779H134.128C133.708 50.6848 133.422 51.1554 133.422 51.8511V51.8511ZM137.077 44.5359C137.077 43.2468 136.565 42.8273 135.439 42.8273C134.384 42.8273 133.841 43.2979 133.841 44.5666C133.841 45.8353 134.405 46.2547 135.459 46.2547C136.514 46.2547 137.077 45.7636 137.077 44.5257V44.5359Z" fill="white"/>
                     <path d="M146.344 37.0979H147.47V53.6109H146.344V37.0979Z" fill="white"/>
                     <path d="M155.263 38.3972H158.949C161.581 38.3972 162.543 39.7784 162.543 41.7326C162.543 43.0421 162.215 43.7481 161.017 44.2596C162.236 44.6075 163.106 45.5487 163.106 47.4006C163.106 49.8867 161.468 50.8996 159.143 50.8996H155.252V38.3972H155.263ZM158.99 43.6969C160.464 43.6969 160.792 43.0831 160.792 41.7735C160.792 40.4639 160.372 39.7989 158.908 39.7989H156.932V43.6969H159H158.99ZM158.969 49.5082C160.71 49.5082 161.335 48.8329 161.335 47.3085C161.335 45.7841 160.772 45.1088 159.051 45.1088H156.942V49.4979H158.98L158.969 49.5082Z" fill="white"/>
                     <path d="M165.072 46.3468C165.072 42.8989 166.485 41.5688 168.635 41.5688C170.786 41.5688 172.035 42.8068 172.035 46.091V46.7049H166.751C166.792 49.191 167.335 49.8049 168.84 49.8049C169.823 49.8049 170.386 49.4263 170.98 48.9557L171.83 50.0811C170.939 50.8075 170.12 51.1349 168.799 51.1349C166.424 51.1349 165.072 49.7537 165.072 46.3468V46.3468ZM166.762 45.5283H170.376C170.376 43.4411 169.905 42.8068 168.594 42.8068C167.54 42.8068 166.884 43.3491 166.762 45.5283Z" fill="white"/>
                     <path d="M174.626 41.8143H175.844L176.1 43.1035C176.776 42.2645 177.605 41.6506 178.66 41.6506C178.773 41.6506 178.916 41.6711 178.988 41.7018L178.803 43.3695C178.64 43.3183 178.445 43.2978 178.261 43.2978C177.421 43.2978 176.858 43.6048 176.192 44.2186V50.8995H174.626V41.8041V41.8143Z" fill="white"/>
                     <path d="M181.056 48.8227V41.8145H182.623V48.3317C182.623 49.4059 182.981 49.764 183.8 49.764C184.527 49.764 185.306 49.2729 185.981 48.6795V41.8145H187.548V50.9099H186.33L186.094 49.7845C185.336 50.562 184.456 51.1452 183.391 51.1452C182.08 51.1452 181.066 50.3983 181.066 48.8227H181.056Z" fill="white"/>
                     <path d="M189.791 41.8145H190.794V40.3616C190.794 38.2745 191.869 37.6606 193.211 37.6606C193.917 37.6606 194.572 37.8039 195.095 38.1517L194.552 39.3283C194.173 39.1237 193.825 39.0418 193.426 39.0418C192.668 39.0418 192.35 39.4204 192.35 40.3514V41.8247H194.06V43.0933H192.35V50.9201H190.784V43.0933H189.78V41.8247L189.791 41.8145Z" fill="white"/>
                     <path d="M79.6945 26.1916L79.3259 27.4705H77.5442V8.21558H79.8379V15.5308C80.8004 14.5179 81.9984 13.8017 83.4012 13.8017C85.9509 13.8017 87.9476 15.2341 87.9476 20.718C87.9476 25.721 86.4833 27.8183 83.3705 27.8183C81.9062 27.8183 80.4727 27.0715 79.6945 26.1916ZM85.5003 20.8714C85.5003 16.5948 84.804 15.7661 83.0019 15.7661C81.7015 15.7661 80.7901 16.4311 79.8379 17.3315V24.5342C80.6058 25.281 81.6707 25.8335 82.7869 25.8335C84.6812 25.8335 85.5003 25.1378 85.5003 20.8612V20.8714Z" fill="#33892D"/>
                     <path d="M91.0093 20.7896C91.0093 15.7866 93.1698 13.7915 96.4158 13.7915C99.6617 13.7915 101.894 15.7866 101.894 20.7896C101.894 25.7926 99.7129 27.8081 96.467 27.8081C93.221 27.8081 91.0093 25.7823 91.0093 20.7896ZM99.4467 20.8203C99.4467 16.6971 98.4637 15.6126 96.4363 15.6126C94.4088 15.6126 93.4565 16.6767 93.4565 20.7998C93.4565 24.9229 94.4395 26.0074 96.467 26.0074C98.4944 26.0074 99.4467 24.9127 99.4467 20.8203Z" fill="#33892D"/>
                     <path d="M105.703 8.21558H107.997V15.6331C109.164 14.5384 110.362 13.8017 111.908 13.8017C113.823 13.8017 115.124 14.7839 115.124 17.045V27.4705H112.83V17.7612C112.83 16.247 112.4 15.8173 111.202 15.8173C110.137 15.8173 108.939 16.5641 107.987 17.4133V27.4705H105.693V8.21558H105.703Z" fill="#33892D"/>
                     <path d="M119.782 24.4932V8.21558H122.076V24.9127C122.076 25.5777 122.373 25.8437 123.008 25.8437C123.325 25.8437 123.54 25.7926 123.54 25.7926L123.858 27.4398C123.458 27.6035 122.762 27.7365 122.209 27.7365C120.509 27.7365 119.782 26.8361 119.782 24.4932V24.4932Z" fill="#33892D"/>
                     <path d="M125.772 26.3758L126.735 24.6774C127.851 25.4448 128.998 25.9052 130.298 25.9052C132.111 25.9052 132.664 25.189 132.664 23.9408C132.664 22.447 131.967 22.1606 129.838 21.5774C127.974 21.0761 126.428 20.0837 126.428 17.4543C126.428 15.5104 127.677 13.812 130.606 13.812C132.203 13.812 133.319 14.1292 134.302 14.6919L133.503 16.5028C132.387 15.9401 131.691 15.7559 130.677 15.7559C129.244 15.7559 128.578 16.2572 128.578 17.4031C128.578 18.6513 129.141 18.9685 130.974 19.48C133.022 20.0427 134.886 20.8408 134.886 23.8385C134.886 26.6009 133.319 27.8286 130.175 27.8286C128.394 27.8286 126.684 27.1329 125.762 26.3962L125.772 26.3758Z" fill="#33892D"/>
                     <path d="M137.773 20.7896C137.773 15.7149 139.801 13.7915 143.098 13.7915C144.613 13.7915 145.73 14.1905 146.876 15.3057L145.545 16.9018C144.747 16.1037 144.132 15.7354 143.016 15.7354C140.989 15.7354 140.221 16.6153 140.221 20.7896C140.221 24.9638 141.071 25.8744 143.2 25.8744C144.296 25.8744 144.9 25.3424 145.648 24.6467L147.061 26.1609C146.078 27.2249 144.88 27.8081 143.067 27.8081C139.658 27.8081 137.773 25.5777 137.773 20.7896V20.7896Z" fill="#33892D"/>
                     <path d="M150.44 8.21558H152.733V15.6331C153.901 14.5384 155.099 13.8017 156.645 13.8017C158.56 13.8017 159.86 14.7839 159.86 17.045V27.4705H157.566V17.7612C157.566 16.247 157.136 15.8173 155.938 15.8173C154.873 15.8173 153.675 16.5641 152.723 17.4133V27.4705H150.429V8.21558H150.44Z" fill="#33892D"/>
                     <path d="M163.567 20.7896C163.567 15.7354 165.646 13.7915 168.779 13.7915C171.912 13.7915 173.755 15.6024 173.755 20.411V21.3113H166.014C166.065 24.9536 166.864 25.8539 169.076 25.8539C170.509 25.8539 171.339 25.2912 172.219 24.6058L173.469 26.253C172.168 27.317 170.97 27.7979 169.025 27.7979C165.533 27.7979 163.567 25.7721 163.567 20.7793V20.7896ZM166.045 19.5925H171.339C171.339 16.5334 170.642 15.6024 168.728 15.6024C167.181 15.6024 166.229 16.4004 166.035 19.5925H166.045Z" fill="#33892D"/>
                     <path d="M178.312 15.9195L176.346 15.6023V14.1393H180.606V27.4602H178.312V15.9195ZM177.831 10.0469C177.831 9.11583 178.527 8.39966 179.428 8.39966C180.329 8.39966 181.056 9.09537 181.056 10.0469C181.056 10.9472 180.36 11.6736 179.408 11.6736C178.507 11.6736 177.841 10.9574 177.841 10.0469H177.831Z" fill="#33892D"/>
                     <path d="M184.671 20.9021C184.671 15.8991 186.135 13.8018 189.248 13.8018C190.712 13.8018 191.93 14.5998 192.791 15.4285V8.22583H195.084V27.4705H193.303L192.934 26.0893C191.92 27.2045 190.64 27.8183 189.237 27.8183C186.678 27.8183 184.691 26.386 184.691 20.9021H184.671ZM192.791 24.4114V17.2087C192.023 16.4618 190.958 15.7764 189.831 15.7764C187.947 15.7764 187.118 16.4721 187.118 20.7487C187.118 25.0253 187.814 25.854 189.616 25.854C190.917 25.854 191.828 25.322 192.78 24.4216L192.791 24.4114Z" fill="#33892D"/>
                     <path d="M249.927 58C241.889 58 234.824 55.1353 229.489 49.7231C224.052 44.2085 220.755 36.259 220.867 28.9744C220.878 28.0741 220.949 27.1533 221.062 26.2018L207.321 27.4295C206.686 27.4807 206.123 27.0203 206.071 26.386C206.01 25.7516 206.481 25.1889 207.116 25.1378L221.451 23.8589C223.735 12.6558 232.838 0 249.825 0C263.495 0 274.615 11.111 274.615 24.7694C274.615 44.3824 258.518 49.5696 249.999 49.5696C247.49 49.5696 245.156 48.8432 243.2 47.4722C243.128 47.4211 243.057 47.3699 242.985 47.3188L242.934 47.2778C242.934 47.2778 242.883 47.2369 242.852 47.2164L242.678 47.0834C239.852 44.8428 238.244 41.4052 238.244 37.6197V24.6671L223.417 25.9972C223.274 27.0305 223.192 28.0434 223.182 29.0153C223.1 34.2537 225.148 42.0191 231.148 48.1065C236.043 53.0686 242.534 55.698 249.938 55.698C260.198 55.698 268.748 51.8818 274.021 44.9554C278.209 39.451 290.671 21.5569 290.793 21.3727C291.285 20.6566 291.469 19.7869 291.305 18.9275C291.142 18.0579 290.65 17.3008 289.913 16.8097L275.158 7.8677C274.615 7.54031 274.441 6.82413 274.769 6.28188C275.096 5.73964 275.813 5.56571 276.356 5.8931L291.162 14.8555C292.463 15.7252 293.312 17.0143 293.589 18.4978C293.865 19.9608 293.548 21.4443 292.708 22.6823C292.575 22.8665 280.093 40.8016 275.874 46.3468C270.151 53.8564 260.945 58 249.948 58H249.927ZM248.709 28.8516C249.313 28.8516 249.907 28.9233 250.511 29.0767C252.764 29.6497 254.597 31.215 255.682 33.5068C256.737 35.7167 256.962 38.3461 256.307 40.9141C255.662 43.4719 254.208 45.6818 252.221 47.1244L252.18 47.1551C260.536 46.3673 272.28 41.0266 272.28 24.7694C272.28 12.3898 262.194 2.31222 249.805 2.31222C234.496 2.31222 226.141 13.4948 223.827 23.6543L238.224 22.3651V20.4315C238.224 13.7915 243.63 8.37926 250.276 8.37926C251.75 8.37926 252.948 9.57629 252.948 11.0496C252.948 18.8763 249.108 23.0302 240.538 24.4114V34.5401C242.186 31.082 245.381 28.8516 248.699 28.8516H248.709ZM244.439 45.5283C244.941 45.8864 245.514 46.1524 246.128 46.3059C247.705 46.7049 249.385 46.3263 250.859 45.2521C252.405 44.1267 253.542 42.3771 254.064 40.3412C254.586 38.3052 254.412 36.2283 253.593 34.4992C252.805 32.8418 251.504 31.7164 249.938 31.3173C246.62 30.4784 243.046 33.1487 242.002 37.2821C241.214 40.3821 242.022 43.4923 244.06 45.2316L244.357 45.4669C244.357 45.4669 244.418 45.5078 244.449 45.5283H244.439ZM250.286 10.6915C244.92 10.6915 240.548 15.0602 240.548 20.4315V22.0787C247.787 20.8509 250.654 17.6793 250.654 11.0496C250.654 10.8449 250.491 10.6915 250.296 10.6915H250.286Z" fill="#33892D"/>
                  </svg>